<svg width="791" height="543" viewBox="0 0 791 543" fill="none" xmlns="http://www.w3.org/2000/svg">
<path d="M8.08703 411.765L7.20501 417.865C7.16281 418.146 7.0284 418.404 6.82299 418.6C6.61797 418.79 6.36302 418.918 6.08801 418.968L0 419.85L6.08801 420.732C6.37264 420.766 6.63755 420.895 6.84027 421.098C7.04299 421.301 7.17176 421.565 7.20599 421.85L8.08801 427.938L8.97003 421.838C9.01041 421.558 9.14163 421.298 9.34356 421.1C9.5455 420.901 9.80699 420.774 10.088 420.738L16.176 419.856L10.076 418.974C9.79565 418.934 9.53621 418.803 9.33752 418.601C9.13884 418.399 9.01184 418.137 8.97601 417.856L8.08703 411.765Z" fill="#E9BE6B" fill-opacity="0.45"/>
<path d="M26.2337 359.067L32.3187 360.053C32.5986 360.1 32.8549 360.239 33.0472 360.447C33.2338 360.656 33.3571 360.913 33.4027 361.189L34.1842 367.293L35.1697 361.22C35.2087 360.936 35.342 360.673 35.5482 360.474C35.7544 360.274 36.0215 360.15 36.3067 360.121L42.4097 359.342L36.3247 358.357C36.0449 358.311 35.7878 358.176 35.5925 357.97C35.3973 357.765 35.2747 357.501 35.2437 357.22L34.4652 351.117L33.4795 357.202C33.4245 357.476 33.2925 357.729 33.099 357.931C32.8865 358.12 32.6238 358.243 32.3427 358.286L26.2337 359.067Z" fill="#E9BE6B" fill-opacity="0.45"/>
<path d="M687.441 202C721.406 202 748.941 174.689 748.941 141C748.941 107.311 721.406 80 687.441 80C653.475 80 625.941 107.311 625.941 141C625.941 174.689 653.475 202 687.441 202Z" fill="#6995AE"/>
<path d="M626.47 140.441C626.478 151.115 629.284 161.6 634.609 170.851C639.933 180.101 647.591 187.794 656.817 193.162C666.043 198.529 676.515 201.384 687.189 201.441C697.862 201.498 708.364 198.755 717.647 193.486C691.186 166.442 661.294 142.982 628.735 123.707C627.204 129.152 626.441 134.785 626.47 140.441Z" fill="#6995AE"/>
<path d="M633.913 137.662L639.707 136L640.398 135.794C645.023 134.957 649.768 135.057 654.354 136.088C662.883 138.617 657.954 145 668.148 142.088C669.457 141.72 669.516 135.676 668.854 133.367C668.575 132.382 664.075 131.529 662.133 131.014C661.407 130.847 660.755 130.451 660.273 129.884C659.791 129.317 659.504 128.61 659.457 127.867L661.383 123.455C661.379 122.772 661.192 122.103 660.84 121.518C660.488 120.933 659.984 120.454 659.383 120.131L651.471 117.057C649.746 116.395 648.278 115.199 647.28 113.645L638.089 104.616C630.515 115.023 626.447 127.57 626.473 140.442" fill="#33691E"/>
<path d="M671.427 177.485C670.942 179.147 669.206 185.559 667.751 192.367C667.501 193.661 667.089 195.441 666.677 197.205C662.588 195.603 658.687 193.557 655.045 191.105C651.63 188.798 648.453 186.157 645.56 183.223L671.545 177.061C671.497 177.2 671.457 177.343 671.427 177.487V177.485Z" fill="#33691E"/>
<path d="M687.221 101.471L691.912 117.912C693.793 124.485 699.383 122.88 703.677 121.68C714.206 118.739 715.236 124.78 716.368 128.724C717.5 132.668 718.236 135.298 721.192 134.445C724.148 133.592 721.292 127.313 726.221 125.901L729.162 125.077L745.25 120.489C741.653 110.122 735.33 100.915 726.946 93.8348C718.562 86.755 708.426 82.0637 697.603 80.2539C699.043 82.1796 700.233 84.2796 701.147 86.5039C702.279 90.4449 698.279 92.6509 692.691 94.2539C686.06 96.1179 686.942 100.471 687.221 101.471Z" fill="#33691E"/>
<path d="M697.545 162.5L700.06 171.324C700.06 171.324 704.472 176.883 705.516 178.015C710.299 182.604 714.664 187.609 718.56 192.971C721.134 191.45 723.592 189.739 725.913 187.853C726.942 187.015 727.928 186.147 728.854 185.253L725.178 172.353V147.5L721.443 145.426L720.943 145.147L718.325 145.882L713.06 147.353C710.751 148.015 708.46 151.162 707.045 153.677C704.177 160.588 701.471 161.353 697.545 162.5Z" fill="#33691E"/>
<path d="M626.471 140.437C626.459 150.47 628.926 160.351 633.652 169.202C638.377 178.052 645.215 185.599 653.559 191.172C657.22 184.865 662.982 180.047 669.837 177.559H669.955C671.293 177 682.411 171.853 679.234 160.706C678.19 157.106 675.469 147.559 659.028 152.25C649.175 155.074 641.66 153.721 640.719 150.368C637.91 140.515 640.248 136.28 640.248 136.28C640.089 136.221 639.936 136.147 639.792 136.059H639.704C636.104 134.059 633.586 126.765 628.66 124.177C627.198 129.473 626.462 134.943 626.471 140.437Z" fill="#33691E"/>
<path d="M695.721 168.412C698.765 179.236 705.53 178.012 705.53 178.012C710.43 176.644 722.104 179.483 725.93 187.85C726.959 187.012 727.945 186.144 728.871 185.25C729.797 184.356 730.9 183.324 731.812 182.309C730.974 175.191 733.283 163.191 730.341 153.162C728.441 146.588 736.856 139.927 738.929 137.191C741.708 133.529 745.12 129.132 746.414 125.015C746.014 123.544 745.561 121.971 745.032 120.486C741.925 111.497 736.753 103.363 729.932 96.7358C728.038 100.498 727.488 104.794 728.373 108.912C729.844 113.853 724.329 119.677 726.02 125.588C726.974 125.292 727.963 125.119 728.961 125.073C731.902 124.973 733.373 126.455 733.829 128.014L734.755 131.293C735.24 132.955 734.211 134.234 732.226 134.867C729.594 135.617 729.461 136.338 729.932 138.014C730.403 139.69 729.506 142.764 727.532 143.323L721.282 145.102L721.382 145.47C724.853 158.029 720 163.264 713.482 165.102C700.982 168.676 697.467 162.573 697.467 162.573C695.589 163.147 695.354 167.103 695.721 168.412Z" fill="#33691E"/>
<path d="M687.5 52.9409C704.806 52.9409 721.723 58.0727 736.112 67.6873C750.502 77.302 761.717 90.9676 768.339 106.956C774.962 122.945 776.695 140.538 773.319 157.511C769.942 174.485 761.609 190.076 749.372 202.313C737.135 214.55 721.544 222.883 704.57 226.26C687.597 229.636 670.004 227.903 654.015 221.28C638.027 214.658 624.361 203.443 614.746 189.053C605.132 174.664 600 157.747 600 140.441C600 117.234 609.219 94.9785 625.628 78.5691C642.038 62.1596 664.294 52.9409 687.5 52.9409ZM687.5 201.471C699.571 201.471 711.37 197.892 721.407 191.186C731.443 184.48 739.266 174.949 743.885 163.797C748.504 152.645 749.713 140.374 747.358 128.535C745.004 116.696 739.191 105.822 730.656 97.2865C722.121 88.7512 711.246 82.9386 699.408 80.5837C687.569 78.2287 675.298 79.4373 664.146 84.0565C652.994 88.6756 643.463 96.498 636.756 106.534C630.05 116.571 626.471 128.37 626.471 140.441C626.471 156.627 632.901 172.15 644.346 183.596C655.792 195.041 671.315 201.471 687.501 201.471H687.5Z" fill="url(#paint0_radial_1_3)"/>
<path d="M443.382 0L441.911 10.529C441.839 11.0138 441.612 11.4623 441.264 11.808C440.915 12.1506 440.468 12.3766 439.985 12.455L429.47 13.926L439.999 15.397C440.484 15.4696 440.932 15.6964 441.278 16.044C441.621 16.3932 441.847 16.84 441.925 17.323L443.396 27.838L444.867 17.309C444.985 16.8663 445.237 16.471 445.588 16.177C445.937 15.8343 446.384 15.6083 446.867 15.53L457.382 14.059L446.853 12.588C446.349 12.4684 445.902 12.1771 445.588 11.764C445.246 11.4147 445.02 10.9679 444.941 10.485L443.382 0Z" fill="#E9BE6B" fill-opacity="0.45"/>
<path d="M62.4992 150L60.4842 163.853C60.395 164.488 60.1007 165.077 59.6462 165.529C59.1907 165.983 58.6039 166.281 57.9692 166.382L44.1162 168.382L57.9692 170.397C58.6082 170.481 59.2019 170.773 59.659 171.227C60.1161 171.682 60.4113 172.273 60.4992 172.912L62.4992 186.765L64.5141 172.912C64.6033 172.277 64.8976 171.688 65.3521 171.236C65.8077 170.783 66.3944 170.484 67.0292 170.383L80.8822 168.383L67.0292 166.368C66.3903 166.284 65.7968 165.992 65.3399 165.538C64.883 165.083 64.588 164.491 64.5002 163.853L62.4992 150Z" fill="#E9BE6B" fill-opacity="0.45"/>
<path d="M621.323 422.06L620.117 430.369C620.058 430.754 619.877 431.109 619.602 431.384C619.338 431.663 618.984 431.84 618.602 431.884L610.294 433.089L618.603 434.295C618.988 434.354 619.343 434.534 619.618 434.81C619.897 435.074 620.074 435.428 620.118 435.81L621.324 444.119L622.53 435.81C622.589 435.425 622.769 435.07 623.045 434.795C623.309 434.516 623.663 434.339 624.045 434.295L632.354 433.089L624.045 431.883C623.66 431.824 623.305 431.644 623.03 431.368C622.751 431.104 622.574 430.75 622.53 430.368L621.323 422.06Z" fill="#E9BE6B" fill-opacity="0.45"/>
<path d="M15.3229 268.06L14.1169 276.369C14.0579 276.754 13.8775 277.109 13.6019 277.384C13.3379 277.663 12.9837 277.84 12.6019 277.884L4.29395 279.089L12.6029 280.295C12.9876 280.354 13.3432 280.534 13.6179 280.81C13.8971 281.074 14.0742 281.428 14.1179 281.81L15.3239 290.119L16.5299 281.81C16.5889 281.425 16.7693 281.07 17.0449 280.795C17.309 280.516 17.6631 280.339 18.0449 280.295L26.3539 279.089L18.0449 277.883C17.6603 277.824 17.3046 277.644 17.0299 277.368C16.7507 277.104 16.5736 276.75 16.5299 276.368L15.3229 268.06Z" fill="#E9BE6B" fill-opacity="0.45"/>
<path d="M570.44 61C572.925 61 574.94 58.9853 574.94 56.5C574.94 54.0147 572.925 52 570.44 52C567.955 52 565.94 54.0147 565.94 56.5C565.94 58.9853 567.955 61 570.44 61Z" fill="#E9BE6B" fill-opacity="0.45"/>
<path d="M397.793 227.942L396.911 234.042C396.871 234.322 396.739 234.582 396.538 234.78C396.336 234.979 396.074 235.106 395.793 235.142L389.705 236.024L395.805 236.906C396.085 236.946 396.345 237.077 396.544 237.279C396.742 237.481 396.869 237.743 396.905 238.024L397.787 244.112L398.669 238.012C398.709 237.732 398.841 237.472 399.043 237.273C399.245 237.075 399.506 236.948 399.787 236.912L405.875 236.03L399.775 235.148C399.495 235.108 399.235 234.976 399.037 234.774C398.838 234.572 398.711 234.311 398.675 234.03L397.793 227.942Z" fill="#E9BE6B" fill-opacity="0.45"/>
<path d="M311.028 155.883L310.146 161.983C310.106 162.263 309.974 162.523 309.772 162.721C309.57 162.92 309.309 163.047 309.028 163.083L302.94 163.965L309.04 164.847C309.32 164.888 309.579 165.019 309.778 165.221C309.976 165.423 310.103 165.684 310.14 165.965L311.022 172.053L311.904 165.953C311.944 165.672 312.076 165.413 312.277 165.214C312.479 165.016 312.741 164.889 313.022 164.853L319.11 163.971L313.01 163.089C312.73 163.048 312.47 162.917 312.271 162.715C312.073 162.513 311.946 162.252 311.91 161.971L311.028 155.883Z" fill="#E9BE6B" fill-opacity="0.45"/>
<path d="M650.735 282.353L649.044 293.985C648.984 294.542 648.735 295.061 648.338 295.456C647.941 295.852 647.423 296.105 646.867 296.177L635.294 297.794L646.926 299.485C647.483 299.545 648.002 299.794 648.397 300.191C648.793 300.588 649.046 301.106 649.118 301.662L650.736 313.236L652.427 301.604C652.487 301.047 652.736 300.528 653.133 300.133C653.53 299.737 654.048 299.484 654.604 299.412L666.178 297.794L654.544 296.103C653.987 296.043 653.468 295.794 653.073 295.397C652.677 295 652.423 294.482 652.352 293.926L650.735 282.353Z" fill="#E9BE6B" fill-opacity="0.45"/>
<path d="M752.206 397.059L751.324 403.159C751.283 403.439 751.152 403.698 750.95 403.897C750.748 404.095 750.487 404.222 750.206 404.259L744.118 405.141L750.218 406.023C750.499 406.063 750.758 406.195 750.957 406.397C751.155 406.599 751.282 406.86 751.318 407.141L752.2 413.229L753.082 407.129C753.123 406.849 753.254 406.589 753.456 406.391C753.658 406.192 753.919 406.065 754.2 406.029L760.288 405.147L754.188 404.265C753.908 404.225 753.648 404.093 753.45 403.892C753.251 403.69 753.124 403.428 753.088 403.147L752.206 397.059Z" fill="#E9BE6B" fill-opacity="0.45"/>
<path d="M178.675 232.353L177.793 238.453C177.752 238.733 177.62 238.992 177.418 239.191C177.217 239.389 176.956 239.516 176.675 239.553L170.587 240.435L176.675 241.317C176.96 241.351 177.225 241.48 177.427 241.683C177.63 241.885 177.759 242.15 177.793 242.435L178.675 248.523L179.557 242.423C179.597 242.143 179.728 241.883 179.93 241.685C180.132 241.486 180.394 241.359 180.675 241.323L186.763 240.441L180.675 239.559C180.39 239.525 180.125 239.396 179.922 239.193C179.72 238.991 179.591 238.726 179.557 238.441L178.675 232.353Z" fill="#E9BE6B" fill-opacity="0.45"/>
<path d="M666.912 397.059L666.03 403.147C665.996 403.432 665.867 403.697 665.665 403.9C665.462 404.102 665.197 404.231 664.912 404.265L658.824 405.147L664.912 406.029C665.197 406.063 665.462 406.192 665.665 406.395C665.867 406.597 665.996 406.862 666.03 407.147L666.912 413.235L667.794 407.135C667.845 406.86 667.972 406.605 668.162 406.4C668.367 406.201 668.629 406.072 668.912 406.032L675 405.15L668.912 404.268C668.627 404.234 668.363 404.105 668.16 403.903C667.957 403.7 667.828 403.435 667.794 403.15L666.912 397.059Z" fill="#E9BE6B" fill-opacity="0.45"/>
<path d="M444.852 117.647L443.646 125.956C443.587 126.341 443.407 126.696 443.131 126.971C442.867 127.25 442.513 127.427 442.131 127.471L433.823 128.676L442.132 129.882C442.517 129.941 442.873 130.121 443.147 130.397C443.426 130.661 443.603 131.015 443.647 131.397L444.853 139.706L446.059 131.397C446.118 131.012 446.299 130.657 446.574 130.382C446.838 130.103 447.192 129.926 447.574 129.882L455.883 128.676L447.574 127.47C447.19 127.411 446.834 127.231 446.559 126.955C446.28 126.691 446.103 126.337 446.059 125.955L444.852 117.647Z" fill="#E9BE6B" fill-opacity="0.45"/>
<path d="M105.146 426.471L103.94 434.78C103.881 435.165 103.701 435.52 103.425 435.795C103.161 436.074 102.807 436.251 102.425 436.295L94.1172 437.5L102.426 438.706C102.811 438.765 103.166 438.946 103.441 439.221C103.72 439.485 103.897 439.839 103.941 440.221L105.147 448.53L106.353 440.221C106.412 439.837 106.593 439.481 106.868 439.206C107.132 438.927 107.486 438.75 107.868 438.706L116.177 437.5L107.868 436.294C107.484 436.235 107.128 436.055 106.853 435.779C106.574 435.515 106.397 435.161 106.353 434.779L105.146 426.471Z" fill="#E9BE6B" fill-opacity="0.45"/>
<path d="M101.991 250.63L110.279 251.977C110.663 252.043 111.015 252.229 111.285 252.51C111.56 252.779 111.731 253.136 111.768 253.518L112.832 261.847L114.179 253.558C114.245 253.175 114.432 252.822 114.712 252.552C114.981 252.277 115.338 252.106 115.72 252.069L124.05 251.004L115.761 249.657C115.378 249.591 115.025 249.405 114.755 249.125C114.48 248.856 114.309 248.499 114.272 248.116L113.207 239.787L111.861 248.076C111.795 248.46 111.609 248.812 111.329 249.082C111.06 249.357 110.703 249.528 110.32 249.565L101.991 250.63Z" fill="#E9BE6B" fill-opacity="0.45"/>
<path d="M256.616 257.353L255.41 265.662C255.351 266.047 255.17 266.402 254.895 266.677C254.631 266.956 254.277 267.133 253.895 267.177L245.587 268.382L253.896 269.588C254.28 269.647 254.636 269.827 254.911 270.103C255.19 270.367 255.367 270.721 255.411 271.103L256.617 279.412L257.823 271.103C257.882 270.718 258.062 270.363 258.338 270.088C258.602 269.809 258.956 269.632 259.338 269.588L267.647 268.382L259.338 267.176C258.953 267.117 258.598 266.937 258.323 266.661C258.044 266.397 257.867 266.043 257.823 265.661L256.616 257.353Z" fill="#E9BE6B" fill-opacity="0.45"/>
<path d="M216.911 166.177L214.705 181.133C214.607 181.824 214.287 182.464 213.793 182.957C213.3 183.442 212.667 183.76 211.984 183.869L197.058 186.03L212.014 188.236C212.702 188.335 213.339 188.654 213.832 189.144C214.324 189.634 214.646 190.27 214.749 190.957L216.911 205.883L219.117 190.927C219.216 190.236 219.536 189.596 220.029 189.103C220.523 188.618 221.155 188.299 221.838 188.191L236.764 186.029L221.808 183.823C221.12 183.723 220.483 183.405 219.991 182.915C219.498 182.425 219.176 181.789 219.073 181.102L216.911 166.177Z" fill="#E9BE6B" fill-opacity="0.45"/>
<path d="M222.44 16C224.925 16 226.94 14.2091 226.94 12C226.94 9.79086 224.925 8 222.44 8C219.955 8 217.94 9.79086 217.94 12C217.94 14.2091 219.955 16 222.44 16Z" fill="#E9BE6B" fill-opacity="0.45"/>
<path d="M286.94 44C288.597 44 289.94 42.6569 289.94 41C289.94 39.3431 288.597 38 286.94 38C285.283 38 283.94 39.3431 283.94 41C283.94 42.6569 285.283 44 286.94 44Z" fill="#E9BE6B" fill-opacity="0.45"/>
<path d="M54.4399 459C55.8206 459 56.9399 457.657 56.9399 456C56.9399 454.343 55.8206 453 54.4399 453C53.0592 453 51.9399 454.343 51.9399 456C51.9399 457.657 53.0592 459 54.4399 459Z" fill="#E9BE6B" fill-opacity="0.45"/>
<path d="M104.095 326.569C104.742 325.35 104.081 323.732 102.618 322.955C101.155 322.178 99.4441 322.536 98.7965 323.755C98.1489 324.975 98.81 326.593 100.273 327.37C101.736 328.147 103.447 327.789 104.095 326.569Z" fill="#E9BE6B" fill-opacity="0.45"/>
<path d="M136.94 56C140.254 56 142.94 53.3137 142.94 50C142.94 46.6863 140.254 44 136.94 44C133.626 44 130.94 46.6863 130.94 50C130.94 53.3137 133.626 56 136.94 56Z" fill="#E9BE6B" fill-opacity="0.45"/>
<path d="M186.94 405C190.254 405 192.94 402.314 192.94 399C192.94 395.686 190.254 393 186.94 393C183.626 393 180.94 395.686 180.94 399C180.94 402.314 183.626 405 186.94 405Z" fill="#E9BE6B" fill-opacity="0.45"/>
<path d="M782.44 333C784.925 333 786.94 331.209 786.94 329C786.94 326.791 784.925 325 782.44 325C779.955 325 777.94 326.791 777.94 329C777.94 331.209 779.955 333 782.44 333Z" fill="#E9BE6B" fill-opacity="0.45"/>
<path d="M441.176 280.986C443.613 280.986 445.588 279.011 445.588 276.574C445.588 274.137 443.613 272.162 441.176 272.162C438.739 272.162 436.764 274.137 436.764 276.574C436.764 279.011 438.739 280.986 441.176 280.986Z" fill="#E9BE6B" fill-opacity="0.45"/>
<path d="M788.44 222C789.821 222 790.94 220.881 790.94 219.5C790.94 218.119 789.821 217 788.44 217C787.059 217 785.94 218.119 785.94 219.5C785.94 220.881 787.059 222 788.44 222Z" fill="#E9BE6B" fill-opacity="0.45"/>
<path d="M346.69 350.003H367.646C368.426 350.003 369.174 349.693 369.726 349.141C370.277 348.59 370.587 347.842 370.587 347.062C370.587 346.282 370.277 345.534 369.726 344.982C369.174 344.431 368.426 344.121 367.646 344.121H346.69C343.589 344.17 340.492 343.879 337.455 343.253H337.22C336.749 343.165 332.352 342.297 332.352 338.179C332.459 336.095 332.789 334.03 333.337 332.017C336.381 318.899 339.558 307.617 341.661 300.164L341.882 299.399C342.117 298.561 342.382 297.59 342.661 296.561C344.132 291.076 348.029 276.517 352.249 276.517C353.029 276.517 353.777 276.207 354.329 275.655C354.88 275.104 355.19 274.356 355.19 273.576C355.19 272.796 354.88 272.048 354.329 271.496C353.777 270.945 353.029 270.635 352.249 270.635C343.514 270.635 339.734 284.735 336.969 295.035C336.704 296.05 336.454 296.976 336.219 297.8L335.998 298.579C333.88 306.079 330.674 317.432 327.598 330.679C326.951 333.15 326.573 335.683 326.47 338.236C326.47 345.589 332.749 348.53 336.191 349.104C339.646 349.8 343.168 350.101 346.69 350.003Z" fill="#455A64"/>
<path d="M344.456 213.868L345.926 213.236L370.588 333.824H369.029C367.216 333.838 365.453 333.232 364.033 332.106C362.612 330.98 361.62 329.401 361.22 327.633L339.867 222.662C339.504 220.892 339.761 219.051 340.597 217.449C341.433 215.847 342.796 214.582 344.455 213.868H344.456Z" fill="#455A64"/>
<path opacity="0.2" d="M158.823 516.178C158.823 523.198 161.612 529.931 166.576 534.896C171.541 539.86 178.274 542.649 185.294 542.649H629.412C636.433 542.649 643.166 539.86 648.13 534.896C653.094 529.931 655.883 523.198 655.883 516.178H158.823Z" fill="url(#paint1_linear_1_3)"/>
<path d="M425 330.883L417.647 332.354H406.956C406.223 332.366 405.49 332.429 404.765 332.545C403.412 332.78 401.089 333.192 399.515 333.56C398.453 333.769 397.496 334.341 396.809 335.178C395.221 337.178 389.721 342.207 389.709 343.693C389.709 344.031 389.782 344.793 390.93 344.899C392.33 345.031 399.959 340.487 399.959 340.487L405.841 339.619L407.312 341.09C405.912 341.897 404.434 342.562 402.9 343.075C401.429 343.59 401.429 344.075 401.429 344.81C401.429 345.119 401.561 345.81 402.605 345.91C404.267 346.086 407.605 345.498 410.134 345.498C412.881 345.368 415.507 344.334 417.605 342.557H427.899L425 330.883Z" fill="#4D3E34"/>
<path d="M489.706 273.53C495.588 273.53 502.941 275.001 502.941 294.118C502.941 302.942 499.676 327.618 491.176 338.236C485.294 345.589 435.852 342.648 427.941 342.648L425 330.883C425 330.883 446.927 326.236 470.177 322.354C470.177 322.354 472.118 314.354 475.339 298.942C479.412 279.412 483.647 273.53 489.706 273.53Z" fill="#1B3963"/>
<path d="M488.235 269.118C480.882 273.53 475 291.897 475 307.353C475 326.471 479.412 347.059 477.941 366.177C477.309 373.516 477.309 380.896 477.941 388.236H523.529V269.118H488.235Z" fill="#22477D"/>
<path d="M485.705 493.56C486.407 492.398 486.774 491.064 486.764 489.707C486.625 488.026 485.871 486.455 484.646 485.295C477.94 477.942 474.999 475.001 474.999 475.001L463.234 483.825C464.738 485.378 465.906 487.224 466.666 489.248C467.425 491.272 467.758 493.431 467.646 495.59C467.686 498.778 466.65 501.886 464.705 504.413C464.705 504.413 458.823 507.354 458.823 516.178H468.147C469.141 516.177 470.117 515.924 470.987 515.443C471.856 514.962 472.589 514.269 473.118 513.428L485.705 493.56Z" fill="#212121"/>
<path d="M498.529 404.413C480.882 408.825 455.882 411.766 455.882 411.766C466.176 438.237 480.882 479.413 480.882 479.413L461.764 488.237C461.764 488.237 419.529 426.472 419.529 403.388C419.529 391.182 429.411 376.476 488.235 369.123C508.735 366.564 516.176 376.476 516.176 385.299C516.176 397.06 507.353 402.207 498.529 404.413Z" fill="#6D4C41"/>
<path d="M413.235 489.707C413.235 489.707 412.72 491.869 405.882 505.884C404.029 509.678 402.823 516.178 398.529 516.178C395.929 516.178 366.929 504.207 363.235 502.943C363.235 500.002 367.647 495.59 375 495.59C380.882 495.59 386.765 497.061 389.706 497.061C392.647 497.061 397.059 483.825 397.059 483.825L413.235 489.707Z" fill="#212121"/>
<path d="M513.235 377.942C542.485 377.942 552.941 389.707 552.941 389.707C552.941 389.707 552.941 420.589 525 420.589H450C450 435.295 413.338 494.883 413.235 495.589L394.117 486.766C394.117 486.766 413.235 427.457 423.367 401.766C425.382 396.666 429.411 392.648 440.191 388.722C468.661 378.368 507.558 377.942 513.235 377.942Z" fill="#8D6E63"/>
<path d="M420.588 350.001H445.588C445.588 344.119 442.647 342.648 436.764 342.648C422.059 342.648 420.588 350.001 420.588 350.001Z" fill="#847474"/>
<path d="M457.354 336.765H452.942C450.81 336.765 442.53 333.824 438.236 333.824C436.03 333.824 430.457 335.883 427.942 336.765C425.677 337.559 422.06 343.839 422.06 345.589C422.06 346.677 422.472 347.06 423.531 347.06C425.002 347.06 429.413 345.589 435.296 345.589C437.517 345.589 445.59 347.06 448.531 347.06H457.355L457.354 336.765Z" fill="#6D584A"/>
<path d="M479.412 261.766C481.939 261.796 484.444 261.295 486.765 260.295C487.868 263.101 488.369 266.107 488.236 269.119C488.236 272.06 489.707 275.001 492.648 275.001C517.648 275.001 513.236 254.413 513.236 254.413C513.236 254.413 508.824 250.001 508.824 247.06V235.295C508.824 213.236 501.471 202.942 485.295 202.942C469.119 202.942 457.357 214.28 457.357 226.471C457.357 242.648 467.647 261.766 479.412 261.766Z" fill="#6D584A"/>
<path d="M485.295 198.53C507.354 198.53 511.766 216.177 511.766 225.001C511.766 232.677 509.06 239.001 508.825 242.648C508.752 243.898 508.825 247.06 508.825 247.06C508.825 247.06 497.899 245.928 493.501 243.398C492.827 243.037 492.258 242.507 491.851 241.86C491.443 241.212 491.211 240.471 491.177 239.707C491.973 237.327 492.467 234.857 492.648 232.354C492.761 231.003 492.374 229.658 491.561 228.573C490.748 227.489 489.564 226.741 488.236 226.472C485.295 226.472 483.824 228.295 483.824 233.825C482.859 233.939 481.885 233.706 481.076 233.167C480.268 232.628 479.677 231.818 479.412 230.884C478.588 227.531 475.427 219.119 472.059 219.119C469.118 219.119 464.706 226.472 457.353 226.472C457.354 216.177 460.295 198.53 485.295 198.53Z" fill="#212121"/>
<path d="M482.352 345.589C479.691 330.548 478.705 315.259 479.411 300.001C480.205 277.53 488.235 269.119 488.235 269.119C488.235 269.119 489.706 270.59 494.117 270.59C507.352 270.59 513.235 257.355 513.235 257.355L523.529 269.12V388.237H502.941C502.941 388.237 485.294 382.137 485.294 370.59C485.29 368.001 483.632 353.104 482.352 345.589Z" fill="#FFB300"/>
<path d="M513.235 254.412C513.235 254.412 532.353 267.647 541.173 284.736C549.541 300.913 551.394 332.957 551.099 346.898C551.467 380.883 554.408 383.825 554.408 399.998C554.408 399.998 548.599 405.88 527.937 405.88C507.275 405.88 500.128 392.38 499.996 389.703C499.364 376.821 499.996 364.703 497.055 341.174C496.147 333.824 491.173 319.118 491.173 304.412C491.069 295.531 493.631 286.822 498.526 279.412C513.235 258.824 513.235 254.412 513.235 254.412Z" fill="#22477D"/>
<path d="M519.119 277.942C529.413 277.942 535.295 286.766 535.295 313.236C535.295 324.927 533.236 340.486 527.942 345.589C524.766 348.663 514.707 350.001 504.413 350.001H457.353V336.766C476.471 332.354 505.882 326.472 505.882 326.472V302.942C505.882 288.236 508.825 277.942 519.119 277.942Z" fill="#254E8A"/>
<path d="M380.882 350.001H413.235V348.369C413.237 348.001 413.1 347.645 412.852 347.373C412.605 347.101 412.264 346.931 411.897 346.898L382.485 344.148C382.098 344.112 381.712 344.231 381.412 344.479C381.112 344.727 380.923 345.084 380.885 345.471L380.882 350.001Z" fill="#847474"/>
<path d="M380.882 350H413.235L380.882 347.059V350Z" fill="#6D584A"/>
<path d="M594.118 273.53C594.118 329.045 576.471 339.177 576.471 377.942C576.471 408.927 578.648 438.236 537.309 438.236H475V427.942C475 425.992 475.775 424.122 477.154 422.743C478.533 421.364 480.403 420.589 482.353 420.589H537.31C543.016 420.589 550.545 419.883 553.869 416.516C558.928 411.428 558.884 396.692 558.84 382.428V377.943C558.84 357.605 563.134 343.869 567.281 330.561C571.81 316.076 576.487 301.149 576.487 273.532C576.507 271.595 577.29 269.743 578.667 268.38C580.044 267.017 581.903 266.253 583.84 266.253H594.134L594.118 273.53Z" fill="#546E7A"/>
<path d="M482.353 445.589H537.309C552.709 445.589 563.909 441.854 571.574 434.163C583.974 421.722 583.824 402.604 583.824 382.354V377.942C583.824 361.413 587.206 350.574 591.177 338.015C596.015 322.486 601.471 304.897 601.471 273.53C601.471 271.58 600.697 269.709 599.318 268.33C597.939 266.951 596.069 266.177 594.118 266.177H586.765V273.53C586.765 302.662 581.853 318.398 577.089 333.63C572.989 346.762 569.118 359.174 569.118 377.939V382.351C569.118 399.469 569.218 415.63 561.147 423.733C556.382 428.512 548.573 430.833 537.294 430.833H475V438.186C475 440.136 475.775 442.006 477.154 443.385C478.533 444.764 480.403 445.539 482.353 445.539V445.589Z" fill="#455A64"/>
<path d="M522.06 439.706C523.061 439.705 524.033 439.363 524.814 438.736C525.596 438.11 526.141 437.236 526.36 436.258C526.579 435.281 526.458 434.258 526.019 433.358C525.58 432.458 524.847 431.734 523.942 431.306C523.692 431.188 498.53 418.983 498.53 401.218C498.53 397.233 499.501 392.644 507.104 392.644H575.004C575.588 392.653 576.169 392.545 576.712 392.327C577.255 392.11 577.749 391.786 578.166 391.375C578.583 390.965 578.914 390.476 579.14 389.936C579.366 389.396 579.482 388.817 579.482 388.232C579.482 387.647 579.366 387.068 579.14 386.529C578.914 385.989 578.583 385.5 578.166 385.089C577.749 384.679 577.255 384.355 576.712 384.137C576.169 383.92 575.588 383.812 575.004 383.821H507.107C496.372 383.821 489.707 390.483 489.707 401.221C489.707 424.589 518.928 438.692 520.178 439.28C520.766 439.559 521.408 439.705 522.06 439.707V439.706Z" fill="#263238"/>
<path d="M499.854 511.31C499.854 511.31 502.942 505.884 525.001 505.884C539.575 505.884 545.81 508.266 548.236 509.693C548.974 510.057 549.614 510.591 550.104 511.252L552.016 510.652L553.487 510.373L558.825 509.947C558.59 506.932 555.425 497.065 525.001 497.065C494.577 497.065 491.427 506.928 491.177 509.942L500.001 510.648C499.998 510.876 499.948 511.102 499.854 511.31Z" fill="#263238"/>
<path d="M475.001 518.325C475.854 514.854 486.486 505.884 525.001 505.884C563.516 505.884 574.207 514.855 575.001 518.325C574.986 518.217 574.986 518.108 575.001 518.001L583.825 517.295C583.56 513.913 579.413 497.06 525.001 497.06C470.589 497.06 466.456 513.913 466.177 517.295L475.001 518.001C475.016 518.108 475.016 518.217 475.001 518.325Z" fill="#546E7A"/>
<path d="M533.941 445H515.941V500H533.941V445Z" fill="#37474F"/>
<path d="M533.941 491H515.941C514.285 491 512.941 492.343 512.941 494V505C512.941 506.657 514.285 508 515.941 508H533.941C535.598 508 536.941 506.657 536.941 505V494C536.941 492.343 535.598 491 533.941 491Z" fill="#455A64"/>
<path d="M525.001 526.472C525.581 526.472 526.154 526.357 526.69 526.136C527.225 525.914 527.711 525.589 528.121 525.179C528.531 524.77 528.856 524.283 529.077 523.748C529.299 523.213 529.413 522.639 529.413 522.06V501.472C529.413 500.301 528.949 499.179 528.121 498.352C527.294 497.524 526.171 497.06 525.001 497.06C523.831 497.06 522.709 497.524 521.882 498.352C521.054 499.179 520.589 500.301 520.589 501.472V522.06C520.589 523.23 521.054 524.352 521.882 525.179C522.709 526.007 523.831 526.472 525.001 526.472Z" fill="#78909C"/>
<path d="M528.941 522H521.941C520.837 522 519.941 522.895 519.941 524V530C519.941 531.104 520.837 532 521.941 532H528.941C530.046 532 530.941 531.104 530.941 530V524C530.941 522.895 530.046 522 528.941 522Z" fill="#263238"/>
<path d="M583.941 516H575.941C574.837 516 573.941 516.895 573.941 518V524C573.941 525.104 574.837 526 575.941 526H583.941C585.046 526 585.941 525.104 585.941 524V518C585.941 516.895 585.046 516 583.941 516Z" fill="#263238"/>
<path d="M557.941 508H550.941C549.837 508 548.941 508.895 548.941 510V518C548.941 519.104 549.837 520 550.941 520H557.941C559.046 520 559.941 519.104 559.941 518V510C559.941 508.895 559.046 508 557.941 508Z" fill="#263238"/>
<path d="M499.941 508H490.941C489.837 508 488.941 508.895 488.941 510V518C488.941 519.104 489.837 520 490.941 520H499.941C501.046 520 501.941 519.104 501.941 518V510C501.941 508.895 501.046 508 499.941 508Z" fill="#263238"/>
<path d="M474.941 516H466.941C465.837 516 464.941 516.895 464.941 518V524C464.941 525.104 465.837 526 466.941 526H474.941C476.046 526 476.941 525.104 476.941 524V518C476.941 516.895 476.046 516 474.941 516Z" fill="#263238"/>
<path d="M255.882 325.001C255.925 322.252 256.693 319.563 258.108 317.205C259.523 314.848 261.535 312.906 263.941 311.576L262.47 308.988C259.612 310.581 257.225 312.901 255.552 315.714C253.879 318.526 252.978 321.731 252.941 325.003L255.882 325.001Z" fill="#33691E"/>
<path d="M254.411 325.001L257.352 324.913C257.267 322.287 257.838 319.681 259.014 317.331C260.19 314.982 261.934 312.963 264.087 311.457L262.382 309.045C259.837 310.837 257.776 313.233 256.385 316.018C254.994 318.803 254.316 321.889 254.411 325.001Z" fill="#33691E"/>
<path d="M254.411 325.001C254.507 321.889 253.829 318.803 252.438 316.018C251.047 313.233 248.986 310.837 246.441 309.045L244.735 311.457C246.901 312.971 248.652 315.004 249.829 317.371C251.006 319.737 251.57 322.36 251.47 325.001H254.411Z" fill="#33691E"/>
<path d="M241.91 298.53C235.572 298.53 228.337 303.515 226.469 304.868C230.513 306.442 233.234 311.353 240.395 312.294C245.174 312.894 246.277 311.162 246.277 311.162C246.277 311.162 250.056 310.794 250.056 305.28C249.999 302.43 247.588 298.53 241.91 298.53Z" fill="#558B2F"/>
<path d="M240 320.472C233.162 319.516 230.574 306.443 226.471 304.872C229.662 304.401 234.677 306.343 246.221 311.166C248.808 318.266 245.014 321.251 240 320.472Z" fill="#33691E"/>
<path d="M262.441 299.781C268.676 296.708 278.412 300.163 280.882 301.046C277.25 303.222 277.764 314.958 271.132 317.134C266.456 318.605 262.823 316.884 262.441 310.502C257.235 307.56 258.015 301.942 262.441 299.781Z" fill="#558B2F"/>
<path d="M271.132 317.135C277.764 314.959 277.25 303.223 280.882 301.047C277.632 301.312 272.955 304.12 262.441 310.503C262.823 316.883 266.341 318.663 271.132 317.135Z" fill="#33691E"/>
<path d="M255.94 302H252.94V323H255.94V302Z" fill="#33691E"/>
<path d="M254.411 285.295C257.116 288.279 258.678 292.123 258.823 296.148C258.823 302.942 254.411 302.942 254.411 302.942C254.411 302.942 249.999 302.942 249.999 298.868C249.999 295.324 254.411 292.089 254.411 285.295Z" fill="#558B2F"/>
<path d="M270.588 327.942L266.176 350.001H242.647L238.235 327.942H270.588Z" fill="#E64A19"/>
<path d="M238.235 332.354H270.588C270.978 332.354 271.352 332.199 271.628 331.923C271.904 331.647 272.059 331.273 272.059 330.883V325.001H236.764V330.883C236.791 331.264 236.955 331.623 237.225 331.893C237.495 332.163 237.854 332.327 238.235 332.354Z" fill="#BF360C"/>
<path d="M312.94 322H265.94V337H312.94V322Z" fill="#FFB300"/>
<path d="M305.94 322H302.94V337H305.94V322Z" fill="#FF8F00"/>
<path d="M275.94 322H273.94V337H275.94V322Z" fill="#FF8F00"/>
<path d="M298.94 327H280.94V332H298.94V327Z" fill="#FF8F00"/>
<path d="M312.94 337H265.94V350H312.94V337Z" fill="#2E7D32"/>
<path d="M305.94 337H302.94V350H305.94V337Z" fill="#7CB342"/>
<path d="M275.94 337H273.94V350H275.94V337Z" fill="#7CB342"/>
<path d="M298.94 341H280.94V346H298.94V341Z" fill="#7CB342"/>
<path d="M307.94 309H266.94V322H307.94V309Z" fill="#1565C0"/>
<path d="M302.94 309H299.94V322H302.94V309Z" fill="#64B5F6"/>
<path d="M274.94 309H271.94V322H274.94V309Z" fill="#64B5F6"/>
<path d="M294.94 313H279.94V318H294.94V313Z" fill="#64B5F6"/>
<path d="M291.176 286.764L289.705 302.941H295.161C296.128 302.94 297.067 302.621 297.835 302.034C298.603 301.447 299.156 300.624 299.411 299.691L301.426 292.338C301.733 291.211 301.58 290.008 301.001 288.994C300.422 287.979 299.464 287.236 298.338 286.926C297.954 286.821 297.559 286.766 297.161 286.764H291.176Z" fill="url(#paint2_radial_1_3)"/>
<path d="M288.102 304.407H295.161C296.45 304.404 297.702 303.978 298.725 303.195C299.748 302.411 300.485 301.313 300.823 300.069L302.838 292.716C303.041 291.981 303.096 291.212 303 290.454C302.904 289.697 302.659 288.966 302.279 288.304C301.897 287.632 301.386 287.042 300.775 286.568C300.164 286.093 299.466 285.744 298.72 285.539C298.215 285.406 297.695 285.338 297.173 285.337H289.82L288.102 304.407ZM297.161 288.23C297.424 288.226 297.686 288.26 297.94 288.33C298.313 288.432 298.662 288.607 298.968 288.844C299.273 289.081 299.529 289.376 299.72 289.712C299.911 290.048 300.034 290.419 300.082 290.803C300.13 291.186 300.102 291.576 299.999 291.948L297.984 299.307C297.814 299.927 297.446 300.473 296.936 300.863C296.427 301.254 295.803 301.467 295.161 301.469H291.308L292.514 288.234L297.161 288.23Z" fill="#1B3963"/>
<path d="M292.646 308.824H274.999C273.219 299.612 272.235 290.263 272.058 280.883C272.058 280.492 272.213 280.118 272.489 279.842C272.765 279.567 273.139 279.412 273.529 279.412H294.117C294.507 279.412 294.881 279.567 295.157 279.842C295.433 280.118 295.588 280.492 295.588 280.883C295.411 290.263 294.427 299.612 292.646 308.824Z" fill="#254E8A"/>
<path d="M233.838 438.604L233.823 519.119H247.044L247.059 438.604L247.044 357.354H233.823L233.838 438.604Z" fill="#4E342E"/>
<path d="M297.074 437.869L297.059 519.119H310.28L310.295 437.869L310.28 357.354H297.059L297.074 437.869Z" fill="#4E342E"/>
<path d="M448.94 350.001H212.94V366.001H448.94V350.001Z" fill="#6D4C41"/>
<path d="M368.94 505.001H212.94V520.001H368.94V505.001Z" fill="#6D4C41"/>
<defs>
<radialGradient id="paint0_radial_1_3" cx="0" cy="0" r="1" gradientUnits="userSpaceOnUse" gradientTransform="translate(-1658.1 -2623.98) rotate(180) scale(87.5 87.5)">
<stop offset="0.76" stop-color="#E1E1E1"/>
<stop offset="0.78" stop-color="#E6E6E6" stop-opacity="0.639"/>
<stop offset="0.8" stop-color="#ECECEC" stop-opacity="0.302"/>
<stop offset="0.81" stop-color="#EFEFEF" stop-opacity="0.078"/>
<stop offset="0.82" stop-color="#F0F0F0" stop-opacity="0"/>
</radialGradient>
<linearGradient id="paint1_linear_1_3" x1="407.353" y1="-1031.82" x2="407.353" y2="-1058.29" gradientUnits="userSpaceOnUse">
<stop stop-color="white" stop-opacity="0"/>
<stop offset="1" stop-color="#B3B3B3" stop-opacity="0.8"/>
</linearGradient>
<radialGradient id="paint2_radial_1_3" cx="0" cy="0" r="1" gradientUnits="userSpaceOnUse" gradientTransform="translate(-6882.18 -4862.71) rotate(180) scale(7.08785 7.08784)">
<stop offset="0.76" stop-color="#EBEBEB"/>
<stop offset="0.77" stop-color="#ECECEC" stop-opacity="0.859"/>
<stop offset="0.78" stop-color="#EEEEEE" stop-opacity="0.659"/>
<stop offset="0.79" stop-color="#F0F0F0" stop-opacity="0.478"/>
<stop offset="0.8" stop-color="#F2F2F2" stop-opacity="0.329"/>
<stop offset="0.81" stop-color="#F3F3F3" stop-opacity="0.212"/>
<stop offset="0.82" stop-color="#F4F4F4" stop-opacity="0.122"/>
<stop offset="0.83" stop-color="#F4F4F4" stop-opacity="0.051"/>
<stop offset="0.85" stop-color="#F5F5F5" stop-opacity="0.012"/>
<stop offset="0.87" stop-color="#F5F5F5" stop-opacity="0"/>
</radialGradient>
</defs>
</svg>
