<svg xmlns="http://www.w3.org/2000/svg" width="69" height="83" aria-hidden="true" data-bbox="34 20 131.998 160.001" data-type="color" viewBox="34 20 131.998 160.001"><defs><style>#comp-lbibm3z2 svg [data-color=&quot;1&quot;]{fill:#a0a09f}</style></defs><path fill="#A0A09F" d="M93.208 172.349c-.73 0-1.489-.115-2.241-.409a.913.913 0 0 1 .658-1.701c2.515.983 5.439-.9 5.469-.919a.904.904 0 0 1 1.254.265.915.915 0 0 1-.261 1.261c-.117.079-2.311 1.503-4.879 1.503zM49.19 38.697c-.439 0-.901-.048-1.38-.145-2.773-.561-5.993-2.824-6.809-5.705-4.646-3.476-8.566-6.516-6.378-10.755.598-1.159 1.735-1.889 3.202-2.055 2.347-.27 5.231.939 7.165 2.969 1.817-.285 3.789.816 5.506 3.113 2.458 3.288 3.97 8.433 2.302 10.854-.777 1.126-2.053 1.724-3.608 1.724zM38.503 21.825c-.162 0-.32.008-.475.026-.872.099-1.475.463-1.795 1.082-1.298 2.514.387 4.364 6.111 8.644.176.133.3.326.345.543.482 2.281 3.219 4.187 5.478 4.644.844.171 2.369.289 3.139-.83 1.031-1.495-.089-5.813-2.26-8.717-.668-.892-2.402-2.905-4.079-2.332a.903.903 0 0 1-.981-.275c-1.406-1.67-3.638-2.785-5.483-2.785zm-3.075.688h.009-.009z" data-color="1"/><path fill="#A0A09F" d="M52.052 37.367a.913.913 0 0 1-.832-1.272c1.561-3.66 3.748-4.352 5.195-4.809 1.414-.447 1.89-.598 1.248-3.82-.512-2.572-1.876-4.096-4.053-4.53-2.41-.48-4.776.609-5.178 1.215a.903.903 0 0 1-1.257.252.916.916 0 0 1-.251-1.266c.939-1.415 4.147-2.567 7.038-1.992 2.883.575 4.829 2.692 5.48 5.961.894 4.494-.403 5.262-2.484 5.919-1.331.421-2.84.898-4.073 3.788a.907.907 0 0 1-.833.554zM91.296 96.403a.896.896 0 0 1-.614-.241c-2.192-2.03-3.108-3.705-4.493-6.24-1.487-2.721-3.522-6.447-8.303-12.989-8.255-11.296-17.089-17.842-22.367-21.753-2.105-1.56-3.635-2.693-4.479-3.632l-.08-.071c-4.861-4.257-9.452-8.277-9.188-16.059.018-.505.477-.895.937-.881.5.017.892.439.876.943-.234 6.914 3.844 10.486 8.566 14.621l.123.107c.03.026.058.053.084.083.708.803 2.266 1.958 4.238 3.419 5.361 3.973 14.334 10.622 22.753 22.141 4.851 6.638 6.921 10.425 8.431 13.191 1.391 2.546 2.157 3.948 4.131 5.777a.916.916 0 0 1 .054 1.289.905.905 0 0 1-.669.295z" data-color="1"/><path fill="#A0A09F" d="M105.425 64.62a.908.908 0 0 1-.322-.06c-.025-.01-2.523-.957-4.36-1.073a.907.907 0 0 1-.751-.495c-1.445-2.846-5.463-4.785-9.348-6.661-4.165-2.01-8.099-3.909-9.654-7.036-1.307-2.627-3.202-3.667-5.033-4.672-1.895-1.04-3.854-2.115-4.301-4.885-.245-1.518-1.049-1.752-2.568-2.064-1.537-.316-3.859-.793-3.693-4.404.11-2.356-.633-2.711-2.262-3.49-1.418-.677-3.359-1.605-5.068-4.26a.917.917 0 0 1 .268-1.262.902.902 0 0 1 1.254.27c1.429 2.221 2.967 2.956 4.323 3.604 1.78.851 3.462 1.655 3.296 5.223-.096 2.051.686 2.211 2.243 2.531 1.493.306 3.538.726 3.996 3.56.305 1.887 1.594 2.595 3.379 3.575 1.882 1.033 4.225 2.318 5.786 5.456 1.279 2.569 5.111 4.419 8.818 6.208 3.971 1.916 8.069 3.895 9.931 7.027 2.01.238 4.283 1.102 4.387 1.141a.915.915 0 0 1-.321 1.767zM98.051 169.24a.915.915 0 0 1-.338-1.759c1.701-.69 4.027-2.158 3.971-3.119-.007-.134-.038-.154-.08-.181-.797-.516-4.087-.222-15.225 4.118a.898.898 0 0 1-.819-.084.912.912 0 0 1-.414-.716c-.01-.181-1.017-18.162-2.675-28.669-1.02-6.459-1.423-13.168-1.78-19.088-.238-3.944-.444-7.351-.789-10.077a263.688 263.688 0 0 0-.461-3.384c-.985-7.028-2.475-17.648-1.291-28.356a.91.91 0 0 1 1.002-.806.912.912 0 0 1 .801 1.008c-1.16 10.48.31 20.963 1.283 27.9.175 1.241.334 2.383.464 3.408.353 2.786.56 6.221.799 10.198.355 5.878.756 12.54 1.762 18.912 1.416 8.978 2.359 23.318 2.62 27.605 10.964-4.205 14.236-4.453 15.701-3.503.555.359.869.915.91 1.609.156 2.656-4.226 4.564-5.105 4.92a.94.94 0 0 1-.336.064z" data-color="1"/><path fill="#A0A09F" d="M101.913 164.196a.905.905 0 0 1-.852-.603c-3.294-9.16-3.185-10.61-2.339-21.895.317-4.225.968-8.346 1.542-11.982.991-6.276 1.847-11.696.679-15.233a.907.907 0 1 1 1.722-.576c1.307 3.959.419 9.583-.609 16.095-.597 3.777-1.214 7.683-1.525 11.833-.838 11.176-.926 12.345 2.235 21.137a.913.913 0 0 1-.853 1.224z" data-color="1"/><path fill="#A0A09F" d="M101.804 115.108a.905.905 0 0 1-.783-.451c-4.117-7.064-1.884-15.798.48-25.045 2.039-7.976 4.147-16.224 3.025-24.908a.91.91 0 0 1 .782-1.023.905.905 0 0 1 1.016.787c1.168 9.033-1.082 17.833-3.067 25.598-2.271 8.886-4.245 16.609-1.095 22.887 5.549-3.033 8.492-3.532 8.62-3.553a.907.907 0 0 1 1.038.757.911.911 0 0 1-.752 1.045c-.027.004-3.083.544-8.821 3.788a.881.881 0 0 1-.443.118z" data-color="1"/><path fill="#A0A09F" d="M111.549 111.215a.909.909 0 0 1-.903-.846l-.625-8.54a.912.912 0 0 1 .568-.914c.133-.053 1.432-.529 7.321-1.335-.064-2.115-1.021-4.014-2.112-6.177-1.294-2.57-2.762-5.482-3.027-9.413a.91.91 0 0 1 .843-.972.916.916 0 0 1 .966.849c.241 3.56 1.56 6.179 2.836 8.711 1.281 2.542 2.491 4.944 2.289 7.867a.91.91 0 0 1-.786.841c-4.152.551-6.146.947-7.035 1.157l.57 7.793a.91.91 0 0 1-.905.979zm7.251-10.834h.009-.009z" data-color="1"/><path fill="#A0A09F" d="M134.798 106.065a.901.901 0 0 1-.603-.231c-10.332-9.27-19.743-15.808-19.837-15.873a.917.917 0 0 1-.234-1.269.903.903 0 0 1 1.261-.235c.093.064 9.21 6.397 19.379 15.444a27.65 27.65 0 0 1 2.413-2.018c-2.243-2.33-9.781-9.776-21.116-17.058a.916.916 0 0 1-.276-1.26.904.904 0 0 1 1.253-.278c13.817 8.877 22.101 18.022 22.182 18.113a.912.912 0 0 1 .228.715.913.913 0 0 1-.381.645c-2.372 1.668-3.588 2.994-3.6 3.007a.893.893 0 0 1-.669.298z" data-color="1"/><path fill="#A0A09F" d="M126.612 90.908a.91.91 0 0 1-.907-.905.91.91 0 0 1 .9-.92c.158-.001.212-.03.212-.03.151-.182.12-1.179.099-1.838-.011-.361-.023-.748-.023-1.152 0-2.109-.076-2.747-1.797-3.419a.914.914 0 0 1-.516-1.181.905.905 0 0 1 1.174-.52c2.754 1.077 2.954 2.653 2.954 5.121 0 .384.011.752.022 1.095.042 1.366.076 2.445-.613 3.166-.365.382-.869.579-1.497.584l-.008-.001zM105.039 180c-8.097 0-18.28-.787-19.931-1.972-2.144-1.539-.965-4.653-.018-7.155.375-.99.762-2.012.807-2.614a.916.916 0 0 1 .971-.842c.5.037.875.475.838.978-.064.868-.48 1.966-.92 3.129-.726 1.915-1.629 4.299-.625 5.02 2.079 1.431 23.986 2.221 27.633 1.099-.892-.967-4.972-2.455-7.272-3.293-5.205-1.899-9.702-3.539-9.37-6.138a.899.899 0 0 1 1.016-.789.911.911 0 0 1 .784 1.021c-.148 1.149 5.483 3.203 8.189 4.19 5.371 1.959 8.663 3.265 8.64 5.332-.004.278-.113.797-.813 1.156-1.198.61-5.209.878-9.929.878z" data-color="1"/><path fill="#A0A09F" d="M115.34 84.97a11.17 11.17 0 0 1-1.811-.141.912.912 0 0 1-.72-.628 86.239 86.239 0 0 1-.552-1.928c-.929-3.326-2.657-9.517-4.519-13.259-3.788-7.612-4.873-12.775-3.227-15.346 1.829-2.857 4.334-2.62 7.234-2.345.582.055 1.201.114 1.858.153 1.245.074 2.017-.021 2.907-.134 1.733-.219 3.697-.468 9.519.51 6.198-1.279 10.831.716 14.163 6.097 3.461 5.374.535 16.272-11.77 26.676a.904.904 0 0 1-1.278-.111.918.918 0 0 1 .111-1.286c8.61-7.281 15.23-18.361 11.405-24.301-2.958-4.778-6.9-6.447-12.424-5.255a.888.888 0 0 1-.341.007c-5.687-.967-7.532-.734-9.16-.527-.897.114-1.82.23-3.243.145a55.398 55.398 0 0 1-1.918-.158c-2.985-.283-4.359-.33-5.54 1.517-1.221 1.906-.009 6.841 3.323 13.54 1.94 3.898 3.699 10.198 4.645 13.583.143.514.267.961.37 1.319 3.923.386 8.387-1.73 10.047-2.604-3.469-9.147-7.819-17.973-10.029-20.302a.917.917 0 0 1 .031-1.29.901.901 0 0 1 1.282.03c2.793 2.947 7.594 13.359 10.692 21.66a.915.915 0 0 1-.385 1.105c-.244.149-5.525 3.272-10.67 3.273z" data-color="1"/><path fill="#A0A09F" d="M129.32 86.165c-.123 0-.246-.002-.369-.007a.91.91 0 0 1-.87-.948.895.895 0 0 1 .942-.876c3.695.15 7.857-2.411 10.319-5.011 1.51-1.594 2.392-3.216 2.303-4.233-.27-3.098 2.486-4.671 4.918-6.058 1.38-.787 2.805-1.6 3.493-2.584a.896.896 0 0 1 .854-.381c.006.002 2.149.139 5.036-2.982a.902.902 0 0 1 1.137-.156c.007 0 2.126.963 5.439-4.53 3.802-6.306.139-11.32-2.623-13.288-3.671-2.615-7.854-.831-9.481.057-2.595 1.417-5.213 4.863-5.213 9.371 0 .107-.02.214-.056.314-1.964 5.397-.673 7.681 2.047 9.616a.915.915 0 0 1 .216 1.272.904.904 0 0 1-1.264.218c-3.846-2.738-4.674-6.208-2.757-11.584.064-5.178 3.126-9.155 6.161-10.812 4.011-2.191 8.271-2.168 11.393.057 3.275 2.333 7.62 8.271 3.126 15.724-1.867 3.096-3.772 4.899-5.66 5.36a3.491 3.491 0 0 1-1.546.05c-2.553 2.581-4.653 3.062-5.626 3.129-.946 1.118-2.386 1.939-3.783 2.735-2.597 1.481-4.163 2.511-4.006 4.311.188 2.15-1.671 4.464-2.797 5.652-2.663 2.816-7.158 5.584-11.333 5.584z" data-color="1"/><path fill="#A0A09F" d="M133.05 96.27a.902.902 0 0 1-.709-.343.916.916 0 0 1 .142-1.282c1.34-1.076 3.832-3.081 4.675-7.619a.91.91 0 0 1 .291-.516c5.333-4.742 5.914-6.091 4.779-11.108a.912.912 0 0 1 .682-1.092.903.903 0 0 1 1.085.687c1.36 6.014.173 7.948-5.115 12.675-1.024 4.988-3.879 7.284-5.265 8.398a.896.896 0 0 1-.565.2zM122.661 106.478c-3.208 0-6.838-1.61-9.217-4.225a.915.915 0 0 1 .057-1.289.902.902 0 0 1 1.28.057c2.41 2.647 6.435 4.141 9.361 3.475 1.841-.419 3.074-1.618 3.665-3.564a.904.904 0 0 1 1.132-.606.914.914 0 0 1 .603 1.139c-.783 2.582-2.512 4.245-4.999 4.812-.6.135-1.233.201-1.882.201z" data-color="1"/><path fill="#A0A09F" d="M122.667 102.102a.888.888 0 0 1-.755-.419c-.065-.105-1.568-2.606 1.364-6.215a.903.903 0 0 1 1.276-.128.916.916 0 0 1 .128 1.284c-2.059 2.532-1.256 4.043-1.221 4.106a.927.927 0 0 1-.322 1.241.918.918 0 0 1-.47.131zM150.861 62.673a.898.898 0 0 1-.431-.111l-2.188-1.193a.916.916 0 0 1-.366-1.237.903.903 0 0 1 1.229-.368l2.188 1.193c.44.24.604.794.366 1.237a.904.904 0 0 1-.798.479zM151.735 58.529a.9.9 0 0 1-.45-.121.916.916 0 0 1-.335-1.246l.501-.879a.903.903 0 0 1 1.238-.338.916.916 0 0 1 .335 1.246l-.5.879a.908.908 0 0 1-.789.459zM149.767 54.824a.896.896 0 0 1-.459-.126l-1.593-.942a.915.915 0 0 1-.322-1.249.903.903 0 0 1 1.241-.325l1.593.942a.915.915 0 0 1-.46 1.7zM157.681 59.692a.896.896 0 0 1-.459-.126l-1.593-.942a.915.915 0 0 1-.322-1.249.903.903 0 0 1 1.241-.324l1.593.942a.915.915 0 0 1 .322 1.249.903.903 0 0 1-.782.45zM124.278 67.772c-1.383 0-3.149-.17-4.81-.829a.915.915 0 0 1-.512-1.183.904.904 0 0 1 1.176-.514c2.878 1.141 6.305.543 6.339.537a.906.906 0 0 1 1.052.736.912.912 0 0 1-.729 1.06c-.081.013-1.096.193-2.516.193z" data-color="1"/><path fill="#A0A09F" d="M160.2 62.077a.914.914 0 0 1-.848-1.235l1.242-3.318-12.052-8.33c-.337.205-1.065.758-2.336 2.216a.903.903 0 0 1-1.28.084.918.918 0 0 1-.084-1.288c1.839-2.109 3.135-3.069 3.98-2.929a.903.903 0 0 1 .365.148l13.019 8.999a.916.916 0 0 1 .335 1.074l-1.493 3.988a.906.906 0 0 1-.848.591zm-11.429-12.999zM125.426 80.419a.905.905 0 0 1-.723-.36.917.917 0 0 1 .174-1.279c1.154-.883 8.521-8.695 9.573-14.886a.909.909 0 0 1 1.047-.746.912.912 0 0 1 .741 1.053c-1.159 6.814-8.979 15.049-10.264 16.032a.898.898 0 0 1-.548.186zM131.6 90.303c-.5 0-.907-.408-.907-.912s.407-.912.907-.912c3.359 0 5.857-1.977 5.882-1.997a.904.904 0 0 1 1.274.141.916.916 0 0 1-.137 1.281c-.121.098-3.002 2.399-7.019 2.399zM41.803 33.222a.912.912 0 0 1-.894-1.075l.864-4.83a.905.905 0 0 1 1.053-.736.912.912 0 0 1 .732 1.06l-.864 4.83a.906.906 0 0 1-.891.751z" data-color="1"/></svg>