<svg xmlns="http://www.w3.org/2000/svg" width="49" height="40" aria-hidden="true" data-bbox="19.216 32.444 161.567 135.112" data-type="color" viewBox="19.216 32.444 161.567 135.112"><defs><style>#comp-lbibqscf svg [data-color=&quot;1&quot;]{fill:#a0a09f}</style></defs><path fill="#a0a09f" d="M93.323 98.976c4.958 4.272 12.337 5.524 19.002 2.613 6.66-2.906 10.76-9.171 10.996-15.711-4.02 3.061-8.848 5.904-14.25 8.26-5.405 2.359-10.772 3.968-15.748 4.838zM50.227 86.072c.236 6.54 4.336 12.805 10.998 15.711 6.663 2.909 14.041 1.659 18.999-2.613-4.976-.873-10.344-2.479-15.745-4.836-5.401-2.361-10.229-5.204-14.252-8.262z" data-color="1"/><path fill="#a0a09f" d="M163.805 83.554c2.45-1.316 4.847-2.965 6.966-5.083 9.789-9.794 10.012-25.446 10.012-25.446s-15.657.227-25.446 10.017c-3.017 3.018-5.12 6.59-6.594 10.091-10.411-23.919-34.265-40.689-61.972-40.689-37.248 0-67.555 30.306-67.555 67.557s30.306 67.555 67.555 67.555c36.287 0 65.973-28.757 67.488-64.676.353.398.696.804 1.078 1.186 9.789 9.794 25.446 10.012 25.446 10.012s-.223-15.652-10.012-25.441c-2.119-2.118-4.516-3.765-6.966-5.083zm-23.196 30.406H32.941a55.505 55.505 0 0 1-1.776-13.959 55.205 55.205 0 0 1 3.036-18.027h105.147a55.175 55.175 0 0 1 3.037 18.027c0 4.82-.618 9.496-1.776 13.959z" data-color="1"/></svg>